 <svg
            width="51"
            height="51"
            viewBox="0 0 51 51"
            fill="none"
            xmlns="http://www.w3.org/2000/svg"
          >
            <circle
              cx="25.5"
              cy="25.5"
              r="24.5"
              fill="white"
              stroke="#E6E7EC"
              stroke-width="2"
            />
            <path
              d="M18 31V29H20V22C20 20.6167 20.4167 19.3917 21.25 18.325C22.0833 17.2417 23.1667 16.5333 24.5 16.2V15.5C24.5 15.0833 24.6417 14.7333 24.925 14.45C25.225 14.15 25.5833 14 26 14C26.4167 14 26.7667 14.15 27.05 14.45C27.35 14.7333 27.5 15.0833 27.5 15.5V16.2C28.8333 16.5333 29.9167 17.2417 30.75 18.325C31.5833 19.3917 32 20.6167 32 22V29H34V31H18ZM26 34C25.45 34 24.975 33.8083 24.575 33.425C24.1917 33.025 24 32.55 24 32H28C28 32.55 27.8 33.025 27.4 33.425C27.0167 33.8083 26.55 34 26 34ZM22 29H30V22C30 20.9 29.6083 19.9583 28.825 19.175C28.0417 18.3917 27.1 18 26 18C24.9 18 23.9583 18.3917 23.175 19.175C22.3917 19.9583 22 20.9 22 22V29Z"
              fill="#1D1B20"
            />
          </svg>