<svg width="15" height="16" viewBox="0 0 15 16" fill="none" xmlns="http://www.w3.org/2000/svg">
<g clip-path="url(#clip0_114_741)">
<path d="M13.75 7.38625V7.99958C13.7492 9.4372 13.3128 10.836 12.5058 11.9875C11.6989 13.1389 10.5646 13.9812 9.2721 14.3889C7.97964 14.7965 6.59829 14.7475 5.33404 14.2493C4.0698 13.7511 2.99041 12.8303 2.25685 11.6243C1.52329 10.4183 1.17487 8.99163 1.26355 7.55713C1.35223 6.12263 1.87325 4.75713 2.74892 3.6643C3.6246 2.57146 4.80799 1.80984 6.12262 1.49301C7.43725 1.17619 8.81267 1.32114 10.0438 1.90625M13.75 2.66625L7.5 9.33958L5.625 7.33958" stroke="#72D99E" stroke-width="2" stroke-linecap="round" stroke-linejoin="round"/>
</g>
<defs>
<clipPath id="clip0_114_741">
<rect width="15" height="16" fill="white"/>
</clipPath>
</defs>
</svg>
