<svg width="34" height="36" viewBox="0 0 34 36" fill="none" xmlns="http://www.w3.org/2000/svg">
<path d="M5.66659 30C4.88742 30 4.2204 29.7063 3.66554 29.1188C3.11068 28.5312 2.83325 27.825 2.83325 27V9C2.83325 8.175 3.11068 7.46875 3.66554 6.88125C4.2204 6.29375 4.88742 6 5.66659 6H14.1666L16.9999 9H28.3333C29.1124 9 29.7794 9.29375 30.3343 9.88125C30.8892 10.4688 31.1666 11.175 31.1666 12V27C31.1666 27.825 30.8892 28.5312 30.3343 29.1188C29.7794 29.7063 29.1124 30 28.3333 30H5.66659ZM5.66659 27H28.3333V12H15.8312L12.9978 9H5.66659V27Z" fill="#1D1B20"/>
</svg>
