<svg width="51" height="51" viewBox="0 0 51 51" fill="none" xmlns="http://www.w3.org/2000/svg">
<circle cx="25.5" cy="25.5" r="24.5" fill="white" stroke="#E6E7EC" stroke-width="2"/>
<path d="M26 24C24.9 24 23.9583 23.6083 23.175 22.825C22.3917 22.0417 22 21.1 22 20C22 18.9 22.3917 17.9583 23.175 17.175C23.9583 16.3917 24.9 16 26 16C27.1 16 28.0417 16.3917 28.825 17.175C29.6083 17.9583 30 18.9 30 20C30 21.1 29.6083 22.0417 28.825 22.825C28.0417 23.6083 27.1 24 26 24ZM18 32V29.2C18 28.6333 18.1458 28.1125 18.4375 27.6375C18.7292 27.1625 19.1167 26.8 19.6 26.55C20.6333 26.0333 21.6833 25.6458 22.75 25.3875C23.8167 25.1292 24.9 25 26 25C27.1 25 28.1833 25.1292 29.25 25.3875C30.3167 25.6458 31.3667 26.0333 32.4 26.55C32.8833 26.8 33.2708 27.1625 33.5625 27.6375C33.8542 28.1125 34 28.6333 34 29.2V32H18ZM20 30H32V29.2C32 29.0167 31.9542 28.85 31.8625 28.7C31.7708 28.55 31.65 28.4333 31.5 28.35C30.6 27.9 29.6917 27.5625 28.775 27.3375C27.8583 27.1125 26.9333 27 26 27C25.0667 27 24.1417 27.1125 23.225 27.3375C22.3083 27.5625 21.4 27.9 20.5 28.35C20.35 28.4333 20.2292 28.55 20.1375 28.7C20.0458 28.85 20 29.0167 20 29.2V30ZM26 22C26.55 22 27.0208 21.8042 27.4125 21.4125C27.8042 21.0208 28 20.55 28 20C28 19.45 27.8042 18.9792 27.4125 18.5875C27.0208 18.1958 26.55 18 26 18C25.45 18 24.9792 18.1958 24.5875 18.5875C24.1958 18.9792 24 19.45 24 20C24 20.55 24.1958 21.0208 24.5875 21.4125C24.9792 21.8042 25.45 22 26 22Z" fill="#1D1B20"/>
</svg>
