<svg width="16" height="15" viewBox="0 0 16 15" fill="none" xmlns="http://www.w3.org/2000/svg">
<g clip-path="url(#clip0_114_695)">
<path d="M11.9598 11.2125C10.8202 12.0269 9.43257 12.478 7.99984 12.5C3.33317 12.5 0.666504 7.5 0.666504 7.5C1.49576 6.05118 2.64593 4.78538 4.03984 3.7875M6.59984 2.65C7.05872 2.5493 7.52855 2.49896 7.99984 2.5C12.6665 2.5 15.3332 7.5 15.3332 7.5C14.9285 8.20975 14.4459 8.87796 13.8932 9.49375M9.41317 8.825C9.23007 9.00922 9.00927 9.15697 8.76394 9.25945C8.51861 9.36193 8.25377 9.41704 7.98523 9.42148C7.71669 9.42592 7.44994 9.37961 7.20091 9.28531C6.95187 9.191 6.72565 9.05064 6.53573 8.8726C6.34582 8.69455 6.1961 8.48246 6.09551 8.24899C5.99492 8.01552 5.94552 7.76545 5.95026 7.51369C5.955 7.26194 6.01378 7.01365 6.12309 6.78365C6.2324 6.55366 6.39001 6.34666 6.5865 6.175M0.666504 0.625L15.3332 14.375" stroke="#1E1E1E" stroke-width="2" stroke-linecap="round" stroke-linejoin="round"/>
</g>
<defs>
<clipPath id="clip0_114_695">
<rect width="16" height="15" fill="white"/>
</clipPath>
</defs>
</svg>
