 <svg
          width="51"
          height="51"
          viewBox="0 0 51 51"
          fill="none"
          xmlns="http://www.w3.org/2000/svg"
        >
          <circle
            cx="25.5"
            cy="25.5"
            r="24.5"
            fill="white"
            stroke="#E6E7EC"
            stroke-width="2"
          />
          <path
            d="M14 32V29.225C14 28.6583 14.1417 28.1333 14.425 27.65C14.7083 27.1667 15.1 26.8 15.6 26.55C15.8333 26.4333 16.0583 26.325 16.275 26.225C16.5083 26.125 16.75 26.0333 17 25.95V32H14ZM18 25C17.1667 25 16.4583 24.7083 15.875 24.125C15.2917 23.5417 15 22.8333 15 22C15 21.1667 15.2917 20.4583 15.875 19.875C16.4583 19.2917 17.1667 19 18 19C18.8333 19 19.5417 19.2917 20.125 19.875C20.7083 20.4583 21 21.1667 21 22C21 22.8333 20.7083 23.5417 20.125 24.125C19.5417 24.7083 18.8333 25 18 25ZM18 23C18.2833 23 18.5167 22.9083 18.7 22.725C18.9 22.525 19 22.2833 19 22C19 21.7167 18.9 21.4833 18.7 21.3C18.5167 21.1 18.2833 21 18 21C17.7167 21 17.475 21.1 17.275 21.3C17.0917 21.4833 17 21.7167 17 22C17 22.2833 17.0917 22.525 17.275 22.725C17.475 22.9083 17.7167 23 18 23ZM18 32V29.2C18 28.6333 18.1417 28.1167 18.425 27.65C18.725 27.1667 19.1167 26.8 19.6 26.55C20.6333 26.0333 21.6833 25.65 22.75 25.4C23.8167 25.1333 24.9 25 26 25C27.1 25 28.1833 25.1333 29.25 25.4C30.3167 25.65 31.3667 26.0333 32.4 26.55C32.8833 26.8 33.2667 27.1667 33.55 27.65C33.85 28.1167 34 28.6333 34 29.2V32H18ZM20 30H32V29.2C32 29.0167 31.95 28.85 31.85 28.7C31.7667 28.55 31.65 28.4333 31.5 28.35C30.6 27.9 29.6917 27.5667 28.775 27.35C27.8583 27.1167 26.9333 27 26 27C25.0667 27 24.1417 27.1167 23.225 27.35C22.3083 27.5667 21.4 27.9 20.5 28.35C20.35 28.4333 20.225 28.55 20.125 28.7C20.0417 28.85 20 29.0167 20 29.2V30ZM26 24C24.9 24 23.9583 23.6083 23.175 22.825C22.3917 22.0417 22 21.1 22 20C22 18.9 22.3917 17.9583 23.175 17.175C23.9583 16.3917 24.9 16 26 16C27.1 16 28.0417 16.3917 28.825 17.175C29.6083 17.9583 30 18.9 30 20C30 21.1 29.6083 22.0417 28.825 22.825C28.0417 23.6083 27.1 24 26 24ZM26 22C26.55 22 27.0167 21.8083 27.4 21.425C27.8 21.025 28 20.55 28 20C28 19.45 27.8 18.9833 27.4 18.6C27.0167 18.2 26.55 18 26 18C25.45 18 24.975 18.2 24.575 18.6C24.1917 18.9833 24 19.45 24 20C24 20.55 24.1917 21.025 24.575 21.425C24.975 21.8083 25.45 22 26 22ZM34 25C33.1667 25 32.4583 24.7083 31.875 24.125C31.2917 23.5417 31 22.8333 31 22C31 21.1667 31.2917 20.4583 31.875 19.875C32.4583 19.2917 33.1667 19 34 19C34.8333 19 35.5417 19.2917 36.125 19.875C36.7083 20.4583 37 21.1667 37 22C37 22.8333 36.7083 23.5417 36.125 24.125C35.5417 24.7083 34.8333 25 34 25ZM34 23C34.2833 23 34.5167 22.9083 34.7 22.725C34.9 22.525 35 22.2833 35 22C35 21.7167 34.9 21.4833 34.7 21.3C34.5167 21.1 34.2833 21 34 21C33.7167 21 33.475 21.1 33.275 21.3C33.0917 21.4833 33 21.7167 33 22C33 22.2833 33.0917 22.525 33.275 22.725C33.475 22.9083 33.7167 23 34 23ZM35 32V25.95C35.25 26.0333 35.4833 26.125 35.7 26.225C35.9333 26.325 36.1667 26.4333 36.4 26.55C36.9 26.8 37.2917 27.1667 37.575 27.65C37.8583 28.1333 38 28.6583 38 29.225V32H35Z"
            fill="#1D1B20"
          />
        </svg>