<svg width="37" height="40" viewBox="0 0 37 40" fill="none" xmlns="http://www.w3.org/2000/svg">
<path d="M10.7917 21.6667H26.2083V18.3333H10.7917V21.6667ZM7.70833 35C6.86042 35 6.13455 34.6736 5.53073 34.0208C4.92691 33.3681 4.625 32.5833 4.625 31.6667V8.33333C4.625 7.41667 4.92691 6.63194 5.53073 5.97917C6.13455 5.32639 6.86042 5 7.70833 5H29.2917C30.1396 5 30.8655 5.32639 31.4693 5.97917C32.0731 6.63194 32.375 7.41667 32.375 8.33333V31.6667C32.375 32.5833 32.0731 33.3681 31.4693 34.0208C30.8655 34.6736 30.1396 35 29.2917 35H7.70833ZM7.70833 31.6667H29.2917V8.33333H7.70833V31.6667Z" fill="#1D1B20"/>
</svg>
